<svg width="37" height="35" viewBox="0 0 37 35" fill="none" xmlns="http://www.w3.org/2000/svg">
<path d="M25.5494 22.1904L24.6236 23.1121C24.6236 23.1121 22.42 25.3014 16.4075 19.3235C10.395 13.3455 12.5985 11.1562 12.5985 11.1562L13.1805 10.5743C14.619 9.14592 14.7553 6.85078 13.4999 5.17419L10.9362 1.7498C9.38169 -0.325593 6.38051 -0.600277 4.60016 1.16991L1.40568 4.34404C0.524659 5.22302 -0.0654033 6.35838 0.00581109 7.6199C0.188934 10.849 1.64985 17.7934 9.79677 25.8955C18.4381 34.486 26.5464 34.8279 29.8609 34.5186C30.9108 34.4209 31.8224 33.8878 32.5569 33.1553L35.4461 30.2823C37.3995 28.3433 36.8501 25.0166 34.3515 23.6594L30.4652 21.5454C28.8252 20.6542 26.8312 20.9166 25.5494 22.1904Z" fill="#006EE6"/>
</svg>
