<svg width="24" height="24" viewBox="0 0 24 24" fill="none" xmlns="http://www.w3.org/2000/svg">
<path d="M11.9968 8.2945C9.95657 8.2945 8.29158 9.95951 8.29158 11.9998C8.29158 14.04 9.95657 15.7051 11.9968 15.7051C14.037 15.7051 15.702 14.04 15.702 11.9998C15.702 9.95951 14.037 8.2945 11.9968 8.2945ZM23.1097 11.9998C23.1097 10.4654 23.1236 8.94494 23.0374 7.41335C22.9512 5.63437 22.5454 4.05553 21.2445 2.75465C19.9409 1.45099 18.3649 1.04794 16.5859 0.96177C15.0516 0.8756 13.5311 0.889499 11.9996 0.889499C10.4652 0.889499 8.94479 0.8756 7.41323 0.96177C5.63428 1.04794 4.05547 1.45377 2.75461 2.75465C1.45098 4.05831 1.04794 5.63437 0.961768 7.41335C0.875601 8.94772 0.889499 10.4682 0.889499 11.9998C0.889499 13.5314 0.875601 15.0546 0.961768 16.5862C1.04794 18.3652 1.45376 19.944 2.75461 21.2449C4.05825 22.5486 5.63428 22.9516 7.41323 23.0378C8.94757 23.124 10.468 23.1101 11.9996 23.1101C13.5339 23.1101 15.0544 23.124 16.5859 23.0378C18.3649 22.9516 19.9437 22.5458 21.2445 21.2449C22.5482 19.9413 22.9512 18.3652 23.0374 16.5862C23.1263 15.0546 23.1097 13.5342 23.1097 11.9998ZM11.9968 17.7009C8.84195 17.7009 6.29583 15.1547 6.29583 11.9998C6.29583 8.84487 8.84195 6.29871 11.9968 6.29871C15.1516 6.29871 17.6978 8.84487 17.6978 11.9998C17.6978 15.1547 15.1516 17.7009 11.9968 17.7009ZM17.9313 7.39667C17.1947 7.39667 16.5998 6.80183 16.5998 6.06522C16.5998 5.32861 17.1947 4.73376 17.9313 4.73376C18.6678 4.73376 19.2627 5.32861 19.2627 6.06522C19.2629 6.24013 19.2286 6.41336 19.1618 6.575C19.0949 6.73664 18.9969 6.88351 18.8732 7.00719C18.7495 7.13087 18.6027 7.22893 18.441 7.29577C18.2794 7.3626 18.1062 7.39689 17.9313 7.39667Z" fill="white"/>
</svg>
