<svg width="21" height="20" viewBox="0 0 21 20" fill="none" xmlns="http://www.w3.org/2000/svg">
<path d="M4.72917 2.7084C4.72889 3.26093 4.50913 3.79073 4.11824 4.18123C3.72734 4.57174 3.19733 4.79097 2.64479 4.79069C2.09226 4.79041 1.56246 4.57066 1.17196 4.17976C0.781452 3.78886 0.562224 3.25885 0.5625 2.70632C0.562777 2.15378 0.782535 1.62399 1.17343 1.23348C1.56433 0.842976 2.09434 0.623747 2.64688 0.624024C3.19941 0.6243 3.7292 0.844058 4.11971 1.23495C4.51021 1.62585 4.72944 2.15586 4.72917 2.7084ZM4.79167 6.3334H0.625V19.3751H4.79167V6.3334ZM11.375 6.3334H7.22917V19.3751H11.3333V12.5313C11.3333 8.71882 16.3021 8.36465 16.3021 12.5313V19.3751H20.4167V11.1146C20.4167 4.68756 13.0625 4.92715 11.3333 8.0834L11.375 6.3334Z" fill="white"/>
</svg>
