<svg width="28" height="36" viewBox="0 0 28 36" fill="none" xmlns="http://www.w3.org/2000/svg">
<path d="M14 0.181885C10.2883 0.186264 6.7299 1.66266 4.10535 4.28722C1.48079 6.91177 0.00439367 10.4702 1.48946e-05 14.1819C-0.0044306 17.215 0.986352 20.1659 2.82037 22.5818C2.82037 22.5818 3.20219 23.0846 3.26455 23.1571L14 35.8182L24.7405 23.1508C24.7965 23.0833 25.1796 22.5818 25.1796 22.5818L25.1809 22.578C27.014 20.1632 28.0043 17.2137 28 14.1819C27.9956 10.4702 26.5192 6.91177 23.8946 4.28722C21.2701 1.66266 17.7117 0.186264 14 0.181885ZM14 19.2728C12.9931 19.2728 12.0088 18.9742 11.1716 18.4148C10.3344 17.8554 9.68193 17.0603 9.29661 16.1301C8.91129 15.1998 8.81048 14.1762 9.00691 13.1887C9.20334 12.2011 9.6882 11.294 10.4002 10.582C11.1122 9.87007 12.0193 9.38521 13.0068 9.18878C13.9943 8.99235 15.018 9.09316 15.9482 9.47848C16.8784 9.8638 17.6735 10.5163 18.2329 11.3535C18.7923 12.1907 19.0909 13.175 19.0909 14.1819C19.0892 15.5315 18.5523 16.8254 17.5979 17.7798C16.6436 18.7342 15.3497 19.2711 14 19.2728Z" fill="#006EE6"/>
</svg>
