<svg width="41" height="122" viewBox="0 0 41 122" fill="none" xmlns="http://www.w3.org/2000/svg">
<rect width="40.3439" height="121.625" rx="20.1719" fill="white" fill-opacity="0.04"/>
<rect x="0.263686" y="0.263686" width="39.8165" height="121.098" rx="19.9083" stroke="white" stroke-opacity="0.2" stroke-width="0.527371"/>
<path d="M19.4261 99.8256C19.838 100.238 20.5058 100.238 20.9177 99.8256L27.63 93.1133C28.0419 92.7014 28.0419 92.0335 27.63 91.6216C27.2181 91.2097 26.5503 91.2097 26.1384 91.6216L20.1719 97.5882L14.2053 91.6216C13.7934 91.2097 13.1256 91.2097 12.7137 91.6216C12.3018 92.0335 12.3018 92.7014 12.7137 93.1133L19.4261 99.8256ZM19.1171 22.545L19.1171 99.0798L21.2266 99.0798L21.2266 22.545L19.1171 22.545Z" fill="white"/>
</svg>
